# xmcd
#
# Track frame offsets:
#	150
#	31524
#	46992
#	60250
#	82468
#	96374
#	116257
#	138494
#	169229
#	194880
#	218315
#	237750
#	283480
#	296223
#	310698
#	334699
#
# Disc length: 4651 seconds
#
# Revision: 2
# Processed by: cddbd v1.5.2PL0 Copyright (c) Steve Scherf et al.
# Submitted via: EZCDAudioConverter 2.1.7.1
#
DISCID=ed122910
DTITLE=V/A - Nigeria 70: Lagos Jump
DYEAR=2008
DGENRE=
TTITLE0=Sir Shina Peters and His International Stars - Yabis
TTITLE1=Ify Jerry Krusade - Everybody Likes Something Good
TTITLE2=Bola Johnson and His Easy Life Top Beats - Ezuku Buzo
TTITLE3=Ashanti Afrika Jah - Onyame
TTITLE4=Olufemi Ajasa and His New Nigerian Bros. - Aiye Le
TTITLE5=Peacocks Guitar Band - Eddie Quansa
TTITLE6=Peter King - African Dialects
TTITLE7=Dynamic Africana - Igbehin Lalayo Nta
TTITLE8=Chief Checker - Ire Africa
TTITLE9=Tony Tete Harbor and The Star Heaters Of Nigeria - Tete Muo Bu Muo
TTITLE10=The Faces - Tug Of War
TTITLE11=Eric (Showboy) Akaeze and His Royal Ericos - Wetin De Watch Goat, Goat 
TTITLE11=Dey Watcham
TTITLE12=The Immortals - Hot Tears
TTITLE13=Rex Williams - You Are My Heart
TTITLE14=Sir Victor Uwaifo and His Melody Maestroes - Dododo (Ekassa No. 1)
TTITLE15=Ifeanyi Eddie Okwedy and His Maymores Dance Band - Happy Survival
EXTD=
EXTT0=
EXTT1=
EXTT2=
EXTT3=
EXTT4=
EXTT5=
EXTT6=
EXTT7=
EXTT8=
EXTT9=
EXTT10=
EXTT11=
EXTT12=
EXTT13=
EXTT14=
EXTT15=
PLAYORDER=
